<?xml version="1.0" encoding="UTF-8"?>
<svg width="60px" height="120px" viewBox="0 0 60 120" version="1.1" xmlns="http://www.w3.org/2000/svg" xmlns:xlink="http://www.w3.org/1999/xlink">
    <!-- Generator: Sketch 52.2 (67145) - http://www.bohemiancoding.com/sketch -->
    <title>btn_ContactDribbble</title>
    <desc>Created with Sketch.</desc>
    <g id="btn_ContactDribbble" stroke="none" stroke-width="1" fill="none" fill-rule="evenodd">
        <g id="Group-9" transform="translate(17.000000, 17.000000)" stroke="#FFFFFF" stroke-width="2">
            <path d="M20.9258,24.1348 C20.2028,21.8578 19.3188,19.5218 18.2638,17.1698 C15.2328,10.4178 11.3728,4.7778 7.5098,1.0018" id="Stroke-1"></path>
            <path d="M0.213,11.0215 C4.297,11.8025 9.41,11.0765 13.072,9.4045 C16.139,8.0035 19.211,5.1525 20.139,1.8065" id="Stroke-3"></path>
            <path d="M26.7715,14.5782 C25.2485,14.0452 20.1385,12.8032 16.7775,14.0782 C13.1735,15.4432 6.9025,20.0142 5.5055,24.2422" id="Stroke-5"></path>
            <path d="M26.8204,13.4102 C26.8204,20.8162 20.8184,26.8202 13.4104,26.8202 C6.0064,26.8202 0.0004,20.8162 0.0004,13.4102 C0.0004,6.0042 6.0064,0.0002 13.4104,0.0002 C20.8184,0.0002 26.8204,6.0042 26.8204,13.4102 Z" id="Stroke-7"></path>
        </g>
        <g id="Group-9-Copy" transform="translate(17.000000, 77.000000)" stroke="#2D282D" stroke-width="2">
            <path d="M20.9258,24.1348 C20.2028,21.8578 19.3188,19.5218 18.2638,17.1698 C15.2328,10.4178 11.3728,4.7778 7.5098,1.0018" id="Stroke-1"></path>
            <path d="M0.213,11.0215 C4.297,11.8025 9.41,11.0765 13.072,9.4045 C16.139,8.0035 19.211,5.1525 20.139,1.8065" id="Stroke-3"></path>
            <path d="M26.7715,14.5782 C25.2485,14.0452 20.1385,12.8032 16.7775,14.0782 C13.1735,15.4432 6.9025,20.0142 5.5055,24.2422" id="Stroke-5"></path>
            <path d="M26.8204,13.4102 C26.8204,20.8162 20.8184,26.8202 13.4104,26.8202 C6.0064,26.8202 0.0004,20.8162 0.0004,13.4102 C0.0004,6.0042 6.0064,0.0002 13.4104,0.0002 C20.8184,0.0002 26.8204,6.0042 26.8204,13.4102 Z" id="Stroke-7"></path>
        </g>
    </g>
</svg>