<?xml version="1.0" encoding="UTF-8"?>
<svg width="60px" height="120px" viewBox="0 0 60 120" version="1.1" xmlns="http://www.w3.org/2000/svg" xmlns:xlink="http://www.w3.org/1999/xlink">
    <!-- Generator: Sketch 52.2 (67145) - http://www.bohemiancoding.com/sketch -->
    <title>btn_ContactLinkedin</title>
    <desc>Created with Sketch.</desc>
    <defs>
        <polygon id="path-1" points="0.498038595 0.580856983 17.9445602 0.580856983 17.9445602 19 0.498038595 19"></polygon>
        <polygon id="path-3" points="0.4362 0.0259573391 6.09525121 0.0259573391 6.09525121 18 0.4362 18"></polygon>
        <polygon id="path-5" points="0 0.127291681 6.5229366 0.127291681 6.5229366 6.64247619 0 6.64247619"></polygon>
        <polygon id="path-7" points="0.498038595 0.580856983 17.9445602 0.580856983 17.9445602 19 0.498038595 19"></polygon>
        <polygon id="path-9" points="0.4362 0.0259573391 6.09525121 0.0259573391 6.09525121 18 0.4362 18"></polygon>
        <polygon id="path-11" points="0 0.127291681 6.5229366 0.127291681 6.5229366 6.64247619 0 6.64247619"></polygon>
    </defs>
    <g id="btn_ContactLinkedin" stroke="none" stroke-width="1" fill="none" fill-rule="evenodd">
        <g id="Group-10" transform="translate(17.000000, 17.000000)">
            <g id="Group-3" transform="translate(9.000000, 8.872700)">
                <mask id="mask-2" fill="white">
                    <use xlink:href="#path-1"></use>
                </mask>
                <g id="Clip-2"></g>
                <path d="M5.9031,3.4342 C6.2591,2.8862 6.6701,2.4022 7.1641,1.9902 C8.0761,1.2352 9.1241,0.7932 10.2971,0.6522 C11.6521,0.4872 12.9821,0.6002 14.2661,1.0772 C15.8201,1.6552 16.7831,2.8042 17.3131,4.3392 C17.6001,5.1612 17.7781,6.0102 17.8241,6.8782 C17.8821,7.9722 17.9311,9.0682 17.9371,10.1642 C17.9511,12.9992 17.9411,15.8352 17.9411,18.6692 C17.9411,18.9962 17.9411,18.9962 17.6121,18.9962 C15.9251,18.9962 14.2361,18.9922 12.5471,19.0002 C12.3441,19.0002 12.2911,18.9412 12.2911,18.7432 C12.2951,15.5592 12.3001,12.3772 12.2861,9.1932 C12.2821,8.4532 12.1851,7.7142 11.8841,7.0212 C11.4731,6.0732 10.7321,5.6182 9.7191,5.5632 C9.0611,5.5282 8.4131,5.5822 7.8121,5.8852 C6.9841,6.3032 6.5811,7.0332 6.3591,7.8932 C6.1511,8.7002 6.1401,9.5252 6.1401,10.3512 L6.1401,18.6692 C6.1401,18.9962 6.1401,18.9962 5.8121,18.9962 L0.8081,18.9962 C0.5021,18.9962 0.5021,18.9962 0.5021,18.6882 L0.5021,3.4922 C0.5021,2.7612 0.5061,2.0312 0.4981,1.3022 C0.4961,1.1022 0.5421,1.0232 0.7621,1.0252 C2.3971,1.0342 4.0281,1.0342 5.6611,1.0252 C5.8481,1.0252 5.9111,1.0722 5.9071,1.2672 C5.8961,1.9902 5.9031,2.7132 5.9031,3.4342" id="Fill-1" fill="#FEFEFE" mask="url(#mask-2)"></path>
            </g>
            <g id="Group-6" transform="translate(0.000000, 9.872700)">
                <mask id="mask-4" fill="white">
                    <use xlink:href="#path-3"></use>
                </mask>
                <g id="Clip-5"></g>
                <path d="M0.4422,9.009 L0.4422,0.317 C0.4422,0.032 0.4422,0.03 0.7202,0.03 C2.4232,0.03 4.1262,0.034 5.8252,0.026 C6.0412,0.024 6.0972,0.092 6.0952,0.298 C6.0902,6.105 6.0902,11.913 6.0902,17.721 C6.0902,17.994 6.0902,17.996 5.8162,17.996 C4.1072,17.996 2.3972,17.992 0.6882,18 C0.4822,18.002 0.4362,17.94 0.4362,17.741 C0.4442,14.831 0.4422,11.919 0.4422,9.009" id="Fill-4" fill="#FEFEFE" mask="url(#mask-4)"></path>
            </g>
            <g id="Group-9" transform="translate(0.000000, 0.872700)">
                <mask id="mask-6" fill="white">
                    <use xlink:href="#path-5"></use>
                </mask>
                <g id="Clip-8"></g>
                <path d="M3.2449,6.6423 C1.5549,6.6603 -0.0061,5.2973 -0.0001,3.3783 C0.0059,1.5623 1.4169,0.1233 3.2619,0.1273 C5.2269,0.1333 6.5309,1.7243 6.5229,3.4053 C6.5109,5.2023 5.0609,6.6423 3.2449,6.6423" id="Fill-7" fill="#FEFEFE" mask="url(#mask-6)"></path>
            </g>
        </g>
        <g id="Group-10" transform="translate(17.000000, 77.000000)">
            <g id="Group-3" transform="translate(9.000000, 8.872700)">
                <mask id="mask-8" fill="white">
                    <use xlink:href="#path-7"></use>
                </mask>
                <g id="Clip-2"></g>
                <path d="M5.9031,3.4342 C6.2591,2.8862 6.6701,2.4022 7.1641,1.9902 C8.0761,1.2352 9.1241,0.7932 10.2971,0.6522 C11.6521,0.4872 12.9821,0.6002 14.2661,1.0772 C15.8201,1.6552 16.7831,2.8042 17.3131,4.3392 C17.6001,5.1612 17.7781,6.0102 17.8241,6.8782 C17.8821,7.9722 17.9311,9.0682 17.9371,10.1642 C17.9511,12.9992 17.9411,15.8352 17.9411,18.6692 C17.9411,18.9962 17.9411,18.9962 17.6121,18.9962 C15.9251,18.9962 14.2361,18.9922 12.5471,19.0002 C12.3441,19.0002 12.2911,18.9412 12.2911,18.7432 C12.2951,15.5592 12.3001,12.3772 12.2861,9.1932 C12.2821,8.4532 12.1851,7.7142 11.8841,7.0212 C11.4731,6.0732 10.7321,5.6182 9.7191,5.5632 C9.0611,5.5282 8.4131,5.5822 7.8121,5.8852 C6.9841,6.3032 6.5811,7.0332 6.3591,7.8932 C6.1511,8.7002 6.1401,9.5252 6.1401,10.3512 L6.1401,18.6692 C6.1401,18.9962 6.1401,18.9962 5.8121,18.9962 L0.8081,18.9962 C0.5021,18.9962 0.5021,18.9962 0.5021,18.6882 L0.5021,3.4922 C0.5021,2.7612 0.5061,2.0312 0.4981,1.3022 C0.4961,1.1022 0.5421,1.0232 0.7621,1.0252 C2.3971,1.0342 4.0281,1.0342 5.6611,1.0252 C5.8481,1.0252 5.9111,1.0722 5.9071,1.2672 C5.8961,1.9902 5.9031,2.7132 5.9031,3.4342" id="Fill-1" fill="#2D282D" mask="url(#mask-8)"></path>
            </g>
            <g id="Group-6" transform="translate(0.000000, 9.872700)">
                <mask id="mask-10" fill="white">
                    <use xlink:href="#path-9"></use>
                </mask>
                <g id="Clip-5"></g>
                <path d="M0.4422,9.009 L0.4422,0.317 C0.4422,0.032 0.4422,0.03 0.7202,0.03 C2.4232,0.03 4.1262,0.034 5.8252,0.026 C6.0412,0.024 6.0972,0.092 6.0952,0.298 C6.0902,6.105 6.0902,11.913 6.0902,17.721 C6.0902,17.994 6.0902,17.996 5.8162,17.996 C4.1072,17.996 2.3972,17.992 0.6882,18 C0.4822,18.002 0.4362,17.94 0.4362,17.741 C0.4442,14.831 0.4422,11.919 0.4422,9.009" id="Fill-4" fill="#2D282D" mask="url(#mask-10)"></path>
            </g>
            <g id="Group-9" transform="translate(0.000000, 0.872700)">
                <mask id="mask-12" fill="white">
                    <use xlink:href="#path-11"></use>
                </mask>
                <g id="Clip-8"></g>
                <path d="M3.2449,6.6423 C1.5549,6.6603 -0.0061,5.2973 -0.0001,3.3783 C0.0059,1.5623 1.4169,0.1233 3.2619,0.1273 C5.2269,0.1333 6.5309,1.7243 6.5229,3.4053 C6.5109,5.2023 5.0609,6.6423 3.2449,6.6423" id="Fill-7" fill="#2D282D" mask="url(#mask-12)"></path>
            </g>
        </g>
    </g>
</svg>