<?xml version="1.0" encoding="UTF-8"?>
<svg width="60px" height="120px" viewBox="0 0 60 120" version="1.1" xmlns="http://www.w3.org/2000/svg" xmlns:xlink="http://www.w3.org/1999/xlink">
    <!-- Generator: Sketch 52.2 (67145) - http://www.bohemiancoding.com/sketch -->
    <title>btn_Contact500px</title>
    <desc>Created with Sketch.</desc>
    <defs>
        <polygon id="path-1" points="0 0.0001 45.008 0.0001 45.008 11.2161 0 11.2161"></polygon>
        <polygon id="path-3" points="0 0.0001 45.008 0.0001 45.008 11.2161 0 11.2161"></polygon>
    </defs>
    <g id="btn_Contact500px" stroke="none" stroke-width="1" fill="none" fill-rule="evenodd">
        <g id="Group-3" transform="translate(8.000000, 25.000000)">
            <mask id="mask-2" fill="white">
                <use xlink:href="#path-1"></use>
            </mask>
            <g id="Clip-2"></g>
            <path d="M42.8655,2.9782 L44.8995,0.9442 C44.9735,0.8702 45.1465,0.6972 44.7965,0.3362 C44.6465,0.1812 44.5095,0.1022 44.3895,0.1012 L44.3875,0.1012 C44.2845,0.1012 44.2155,0.1572 44.1605,0.2112 L42.1215,2.2502 L40.0855,0.2022 C39.9205,0.0382 39.7275,0.0762 39.4795,0.3242 C39.2265,0.5782 39.1855,0.7732 39.3495,0.9382 L41.3865,2.9862 L39.3915,4.9812 L39.3775,4.9952 C39.3285,5.0412 39.2555,5.1132 39.2545,5.2282 C39.2535,5.3482 39.3325,5.4892 39.4905,5.6462 C39.6235,5.7802 39.7505,5.8472 39.8655,5.8472 C39.9965,5.8472 40.0805,5.7632 40.1275,5.7162 L42.1295,3.7142 L44.1765,5.7612 C44.2025,5.7882 44.2745,5.8472 44.3905,5.8472 L44.3945,5.8472 C44.5235,5.8452 44.6595,5.7702 44.7995,5.6242 C45.0295,5.3822 45.0675,5.1812 44.9135,5.0262 L42.8655,2.9782 Z M35.5145,0.0552 C34.0075,0.1702 32.8255,1.4972 32.8255,3.0752 L32.8255,8.0652 C32.8255,8.3542 33.0455,8.4142 33.3755,8.4142 C33.7055,8.4142 33.9255,8.3542 33.9255,8.0652 L33.9255,3.0632 C33.9255,2.0802 34.6405,1.2352 35.5535,1.1412 C36.0785,1.0872 36.5825,1.2512 36.9735,1.6052 C37.3585,1.9522 37.5795,2.4502 37.5795,2.9732 C37.5795,3.1232 37.5065,3.6102 37.1725,4.0622 C36.9195,4.4042 36.4405,4.8102 35.5915,4.8102 C35.5865,4.8112 35.5805,4.8102 35.5745,4.8102 C35.3565,4.8102 35.1705,4.8212 35.1355,5.3372 C35.1115,5.6842 35.1135,5.8392 35.4125,5.8812 C35.9485,5.9562 36.4945,5.8512 37.0355,5.5702 C37.9585,5.0892 38.5775,4.1792 38.6505,3.1942 C38.7135,2.3372 38.4055,1.5022 37.8035,0.9032 C37.1995,0.3002 36.3655,-0.0068 35.5145,0.0552 Z M4.2985,3.3632 C3.2175,3.2072 2.1645,3.4962 1.3065,4.1562 L1.3065,1.1842 L6.3435,1.1842 C6.5175,1.1842 6.6435,1.1522 6.6435,0.6352 C6.6435,0.1312 6.4405,0.1112 6.3055,0.1112 L0.7285,0.1112 C0.4055,0.1112 0.2335,0.3742 0.2335,0.6642 L0.2335,5.5412 C0.2335,5.7972 0.3955,5.8842 0.6975,5.9442 C0.9615,5.9962 1.1155,5.9652 1.2305,5.8372 L1.2425,5.8192 C1.7745,5.0532 2.9305,4.3112 4.0295,4.4462 C5.3415,4.6062 6.3975,5.6522 6.5415,6.9332 C6.6335,7.7502 6.3845,8.5372 5.8395,9.1462 C5.3025,9.7482 4.5325,10.0932 3.7285,10.0932 C2.5365,10.0932 1.4955,9.3272 1.0625,8.2162 C0.9985,8.0512 0.8895,7.9292 0.4205,8.1002 C-0.0105,8.2572 -0.0355,8.4382 0.0235,8.6032 C0.5885,10.1572 2.0765,11.2012 3.7275,11.2012 C4.8465,11.2012 5.9165,10.7212 6.6645,9.8852 C7.4215,9.0392 7.7655,7.9472 7.6385,6.8112 C7.4405,5.0342 6.0645,3.6162 4.2985,3.3632 Z M26.0745,10.0202 C23.6415,10.0202 21.6615,8.0402 21.6615,5.6082 C21.6615,3.1752 23.6415,1.1962 26.0745,1.1962 C28.5075,1.1962 30.4865,3.1752 30.4865,5.6082 C30.4865,8.0402 28.5075,10.0202 26.0745,10.0202 Z M26.0745,-0.0008 C22.9815,-0.0008 20.4665,2.5162 20.4665,5.6082 C20.4665,8.7012 22.9815,11.2162 26.0745,11.2162 C29.1665,11.2162 31.6825,8.7012 31.6825,5.6082 C31.6825,2.5162 29.1665,-0.0008 26.0745,-0.0008 Z M13.9375,10.0202 C11.5045,10.0202 9.5255,8.0402 9.5255,5.6082 C9.5255,3.1752 11.5045,1.1962 13.9375,1.1962 C16.3695,1.1962 18.3495,3.1752 18.3495,5.6082 C18.3495,8.0402 16.3695,10.0202 13.9375,10.0202 Z M13.9375,-0.0008 C10.8445,-0.0008 8.3285,2.5162 8.3285,5.6082 C8.3285,8.7012 10.8445,11.2162 13.9375,11.2162 C17.0295,11.2162 19.5455,8.7012 19.5455,5.6082 C19.5455,2.5162 17.0295,-0.0008 13.9375,-0.0008 Z" id="Fill-1" fill="#FEFEFE" mask="url(#mask-2)"></path>
        </g>
        <g id="Group-3" transform="translate(8.000000, 85.000000)">
            <mask id="mask-4" fill="white">
                <use xlink:href="#path-3"></use>
            </mask>
            <g id="Clip-2"></g>
            <path d="M42.8655,2.9782 L44.8995,0.9442 C44.9735,0.8702 45.1465,0.6972 44.7965,0.3362 C44.6465,0.1812 44.5095,0.1022 44.3895,0.1012 L44.3875,0.1012 C44.2845,0.1012 44.2155,0.1572 44.1605,0.2112 L42.1215,2.2502 L40.0855,0.2022 C39.9205,0.0382 39.7275,0.0762 39.4795,0.3242 C39.2265,0.5782 39.1855,0.7732 39.3495,0.9382 L41.3865,2.9862 L39.3915,4.9812 L39.3775,4.9952 C39.3285,5.0412 39.2555,5.1132 39.2545,5.2282 C39.2535,5.3482 39.3325,5.4892 39.4905,5.6462 C39.6235,5.7802 39.7505,5.8472 39.8655,5.8472 C39.9965,5.8472 40.0805,5.7632 40.1275,5.7162 L42.1295,3.7142 L44.1765,5.7612 C44.2025,5.7882 44.2745,5.8472 44.3905,5.8472 L44.3945,5.8472 C44.5235,5.8452 44.6595,5.7702 44.7995,5.6242 C45.0295,5.3822 45.0675,5.1812 44.9135,5.0262 L42.8655,2.9782 Z M35.5145,0.0552 C34.0075,0.1702 32.8255,1.4972 32.8255,3.0752 L32.8255,8.0652 C32.8255,8.3542 33.0455,8.4142 33.3755,8.4142 C33.7055,8.4142 33.9255,8.3542 33.9255,8.0652 L33.9255,3.0632 C33.9255,2.0802 34.6405,1.2352 35.5535,1.1412 C36.0785,1.0872 36.5825,1.2512 36.9735,1.6052 C37.3585,1.9522 37.5795,2.4502 37.5795,2.9732 C37.5795,3.1232 37.5065,3.6102 37.1725,4.0622 C36.9195,4.4042 36.4405,4.8102 35.5915,4.8102 C35.5865,4.8112 35.5805,4.8102 35.5745,4.8102 C35.3565,4.8102 35.1705,4.8212 35.1355,5.3372 C35.1115,5.6842 35.1135,5.8392 35.4125,5.8812 C35.9485,5.9562 36.4945,5.8512 37.0355,5.5702 C37.9585,5.0892 38.5775,4.1792 38.6505,3.1942 C38.7135,2.3372 38.4055,1.5022 37.8035,0.9032 C37.1995,0.3002 36.3655,-0.0068 35.5145,0.0552 Z M4.2985,3.3632 C3.2175,3.2072 2.1645,3.4962 1.3065,4.1562 L1.3065,1.1842 L6.3435,1.1842 C6.5175,1.1842 6.6435,1.1522 6.6435,0.6352 C6.6435,0.1312 6.4405,0.1112 6.3055,0.1112 L0.7285,0.1112 C0.4055,0.1112 0.2335,0.3742 0.2335,0.6642 L0.2335,5.5412 C0.2335,5.7972 0.3955,5.8842 0.6975,5.9442 C0.9615,5.9962 1.1155,5.9652 1.2305,5.8372 L1.2425,5.8192 C1.7745,5.0532 2.9305,4.3112 4.0295,4.4462 C5.3415,4.6062 6.3975,5.6522 6.5415,6.9332 C6.6335,7.7502 6.3845,8.5372 5.8395,9.1462 C5.3025,9.7482 4.5325,10.0932 3.7285,10.0932 C2.5365,10.0932 1.4955,9.3272 1.0625,8.2162 C0.9985,8.0512 0.8895,7.9292 0.4205,8.1002 C-0.0105,8.2572 -0.0355,8.4382 0.0235,8.6032 C0.5885,10.1572 2.0765,11.2012 3.7275,11.2012 C4.8465,11.2012 5.9165,10.7212 6.6645,9.8852 C7.4215,9.0392 7.7655,7.9472 7.6385,6.8112 C7.4405,5.0342 6.0645,3.6162 4.2985,3.3632 Z M26.0745,10.0202 C23.6415,10.0202 21.6615,8.0402 21.6615,5.6082 C21.6615,3.1752 23.6415,1.1962 26.0745,1.1962 C28.5075,1.1962 30.4865,3.1752 30.4865,5.6082 C30.4865,8.0402 28.5075,10.0202 26.0745,10.0202 Z M26.0745,-0.0008 C22.9815,-0.0008 20.4665,2.5162 20.4665,5.6082 C20.4665,8.7012 22.9815,11.2162 26.0745,11.2162 C29.1665,11.2162 31.6825,8.7012 31.6825,5.6082 C31.6825,2.5162 29.1665,-0.0008 26.0745,-0.0008 Z M13.9375,10.0202 C11.5045,10.0202 9.5255,8.0402 9.5255,5.6082 C9.5255,3.1752 11.5045,1.1962 13.9375,1.1962 C16.3695,1.1962 18.3495,3.1752 18.3495,5.6082 C18.3495,8.0402 16.3695,10.0202 13.9375,10.0202 Z M13.9375,-0.0008 C10.8445,-0.0008 8.3285,2.5162 8.3285,5.6082 C8.3285,8.7012 10.8445,11.2162 13.9375,11.2162 C17.0295,11.2162 19.5455,8.7012 19.5455,5.6082 C19.5455,2.5162 17.0295,-0.0008 13.9375,-0.0008 Z" id="Fill-1" fill="#2D282D" mask="url(#mask-4)"></path>
        </g>
    </g>
</svg>